{"title":"The Offspring Live Rock in Rio Lisbon 2012 1080i HDTV MPEG2 EFOi","uid":9655178,"size":5941461134,"categoryP":"video","categoryS":"music_videos","magnet":"?xt=urn:btih:2b35014b6ec6ea3697e0634f4bd90ff94f62563b&amp;dn=The+Offspring+Live+Rock+in+Rio+Lisbon+2012+1080i+HDTV+MPEG2+EFOi&amp;tr=udp%3A%2F%2Ftracker.openbittorrent.com%3A80&amp;tr=udp%3A%2F%2Fopen.demonii.com%3A1337&amp;tr=udp%3A%2F%2Ftracker.coppersurfer.tk%3A6969&amp;tr=udp%3A%2F%2Fexodus.desync.com%3A6969","seeders":2,"leechers":2,"uploader":"GeorgeHug","files":2,"time":1393171510,"description":"The.Offspring.Live.at.Rock.in.Rio.Lisbon.2012.1080i.HDTV.MPEG2-EFOi\nSource: DVB-S\n\n\nMedia Info:\n\nGeneral\nID                                       : 1 (0x1)\nComplete name                            : The.Offspring.Live.at.Rock.in.Rio.Lisbon.2012.1080i.HDTV.MPEG2-EFOi.ts\nFormat                                   : MPEG-TS\nFile size                                : 5.53 GiB\nDuration                                 : 56mn 47s\nOverall bit rate mode                    : Variable\nOverall bit rate                         : 13.9 Mbps\n\nVideo\nID                                       : 308 (0x134)\nMenu ID                                  : 1 (0x1)\nFormat                                   : MPEG Video\nFormat version                           : Version 2\nFormat profile                           : 4:2:2@High\nFormat settings, BVOP                    : Yes\nFormat settings, Matrix                  : Custom\nFormat settings, GOP                     : M=3, N=12\nCodec ID                                 : 2\nDuration                                 : 56mn 47s\nBit rate                                 : 12.9 Mbps\nMaximum bit rate                         : 13.3 Mbps\nWidth                                    : 1 920 pixels\nHeight                                   : 1 080 pixels\nDisplay aspect ratio                     : 16:9\nFrame rate                               : 25.000 fps\nColor space                              : YUV\nChroma subsampling                       : 4:2:2\nBit depth                                : 8 bits\nScan type                                : Interlaced\nScan order                               : Top Field First\nCompression mode                         : Lossy\nBits/(Pixel*Frame)                       : 0.248\nTime code of first frame                 : 07:25:40:10\nTime code source                         : Group of pictures header\nStream size                              : 5.11 GiB (92%)\n\nAudio\nID                                       : 256 (0x100)\nMenu ID                                  : 1 (0x1)\nFormat                                   : MPEG Audio\nFormat version                           : Version 1\nFormat profile                           : Layer 2\nCodec ID                                 : 4\nDuration                                 : 56mn 47s\nBit rate mode                            : Constant\nBit rate                                 : 384 Kbps\nChannel count                            : 2 channels\nSampling rate                            : 48.0 KHz\nCompression mode                         : Lossy\nDelay relative to video                  : -572ms\nStream size                              : 156 MiB (3%)\nLanguage                                 : English\n\nMenu\nID                                       : 32 (0x20)\nMenu ID                                  : 1 (0x1)\nDuration                                 : 56mn 47s\nList                                     : 308 (0x134) (MPEG Video) / 256 (0x100) (MPEG Audio, English)\nLanguage                                 :  / English\nMaximum bit rate                         : 14441200\n","torrent":{"xt":"urn:btih:2b35014b6ec6ea3697e0634f4bd90ff94f62563b","amp;dn":"The+Offspring+Live+Rock+in+Rio+Lisbon+2012+1080i+HDTV+MPEG2+EFOi","amp;tr":["udp%3A%2F%2Ftracker.openbittorrent.com%3A80","udp%3A%2F%2Fopen.demonii.com%3A1337","udp%3A%2F%2Ftracker.coppersurfer.tk%3A6969","udp%3A%2F%2Fexodus.desync.com%3A6969"],"infoHash":"2b35014b6ec6ea3697e0634f4bd90ff94f62563b","infoHashBuffer":{"type":"Buffer","data":[43,53,1,75,110,198,234,54,151,224,99,79,75,217,15,249,79,98,86,59]},"announce":[],"urlList":[]}}